<svg xmlns="http://www.w3.org/2000/svg" xmlns:xlink="http://www.w3.org/1999/xlink"
      style="margin:auto;display:block;z-index:1;position:relative" width="100%" height="100%"
      preserveAspectRatio="xMidYMid" viewBox="0 0 2640 1166">
      <g transform="translate(1320,583) scale(1,1) translate(-1320,-583)">
        <g transform="translate(2363.004616335911,-226.03731082192883) scale(100)" opacity="0.52">
          <path
            d="M12.738 0 C12.738 3.0359999999999996 13.626307705243756 3.1923781608723343 12.309036673282849 5.927719643824078 S10.315653476849485 8.066054385234647 7.942013096076548 9.958969423677763 S5.9999621410951836 12.643891580736703 3.0400809997111677 13.319465136228073 S0.12540948464848434 13.09420530086344 -2.834471656735532 12.41863174537207 S-6.144477292221078 12.574296751921338 -8.518117672994016 10.681381713478224 S-10.159270407380106 8.2621525518312 -11.476541439341013 5.526811068879456 S-13.661999999999999 3.0360000000000014 -13.661999999999999 1.6731124569951139e-15 S-12.793812471301921 -2.7914695859277097 -11.476541439341014 -5.526811068879454 S-10.891758053766958 -8.788466675035105 -8.51811767299402 -10.68138171347822 S-5.794352798119551 -11.7430581898807 -2.834471656735535 -12.41863174537207 S0.08019985832714838 -13.995038691719444 3.0400809997111646 -13.319465136228073 S5.568372715303607 -11.851884462120879 7.942013096076545 -9.958969423677765 S10.99176564132194 -8.663061126775826 12.309036673282847 -5.927719643824082 S12.738 -3.0360000000000027 12.738 -3.119910185507797e-15"
            fill="#0F7EBA" stroke-width="0">
            <animateTransform attributeName="transform" type="rotate" dur="10s" repeatCount="indefinite"
              values="0;51.42857142857143"></animateTransform>
          </path>
        </g>
        <g transform="translate(2571.6055396030933,-387.8447729863145) scale(100)" opacity="0.52">
          <path
            d="M15.285599999999999 0 C15.285599999999999 3.6431999999999998 16.351569246292506 3.8308537930468005 14.770844007939418 7.1132635725888935 S12.378784172219383 9.679265262281577 9.530415715291857 11.950763308413315 S7.199954569314221 15.172669896884042 3.648097199653401 15.983358163473687 S0.15049138157818165 15.713046361036126 -3.401365988082638 14.902358094446482 S-7.373372750665293 15.089156102305605 -10.22174120759282 12.817658056173867 S-12.191124488856127 9.91458306219744 -13.771849727209215 6.632173282655348 S-16.394399999999997 3.643200000000002 -16.394399999999997 2.0077349483941363e-15 S-15.352574965562304 -3.3497635031132513 -13.771849727209217 -6.632173282655344 S-13.070109664520349 -10.546160010042126 -10.221741207592823 -12.817658056173864 S-6.953223357743462 -14.091669827856837 -3.401365988082642 -14.902358094446482 S0.09623982999257752 -16.794046430063332 3.6480971996533973 -15.983358163473687 S6.682047258364328 -14.222261354545054 9.530415715291854 -11.950763308413316 S13.190118769586327 -10.39567335213099 14.770844007939417 -7.113263572588897 S15.285599999999997 -3.6432000000000033 15.285599999999999 -3.743892222609356e-15"
            fill="#0F7EBA" stroke-width="0">
            <animateTransform attributeName="transform" type="rotate" dur="5s" repeatCount="indefinite"
              values="0;51.42857142857143"></animateTransform>
          </path>
        </g>
      </g>
</svg>